<svg width="18" height="18" viewBox="0 0 18 18" fill="none" xmlns="http://www.w3.org/2000/svg">
<path d="M12.5 7C12.8978 7 13.2794 6.84197 13.5607 6.56066C13.842 6.27936 14 5.89782 14 5.5C14 5.10218 13.842 4.72064 13.5607 4.43934C13.2794 4.15803 12.8978 4 12.5 4C12.1022 4 11.7206 4.15803 11.4393 4.43934C11.158 4.72064 11 5.10218 11 5.5C11 5.89782 11.158 6.27936 11.4393 6.56066C11.7206 6.84197 12.1022 7 12.5 7Z" fill="#75757B"/>
<path d="M0 2C0 1.46957 0.210714 0.960859 0.585786 0.585786C0.960859 0.210714 1.46957 0 2 0H16C16.5304 0 17.0391 0.210714 17.4142 0.585786C17.7893 0.960859 18 1.46957 18 2V16C18 16.5304 17.7893 17.0391 17.4142 17.4142C17.0391 17.7893 16.5304 18 16 18H2C1.46957 18 0.960859 17.7893 0.585786 17.4142C0.210714 17.0391 0 16.5304 0 16V2ZM16 2H2V9.92L5.375 7.22C5.55236 7.078 5.77279 7.00062 6 7.00062C6.22721 7.00062 6.44764 7.078 6.625 7.22L10.925 10.66L12.293 9.293C12.4805 9.10553 12.7348 9.00021 13 9.00021C13.2652 9.00021 13.5195 9.10553 13.707 9.293L16 11.586V2ZM2 16H16V14.414L13 11.414L11.707 12.707C11.533 12.8811 11.3009 12.9849 11.0551 12.9986C10.8094 13.0122 10.5672 12.9348 10.375 12.781L6 9.28L2 12.48V16Z" fill="#75757B"/>
</svg>
