<svg width="24" height="24" viewBox="0 0 24 24" fill="none" xmlns="http://www.w3.org/2000/svg">
<path fill-rule="evenodd" clip-rule="evenodd" d="M12 4.63636C7.93318 4.63636 4.63636 7.93318 4.63636 12C4.63636 16.0668 7.93318 19.3636 12 19.3636C16.0668 19.3636 19.3636 16.0668 19.3636 12C19.3636 7.93318 16.0668 4.63636 12 4.63636ZM3 12C3 7.02944 7.02944 3 12 3C16.9706 3 21 7.02944 21 12C21 16.9706 16.9706 21 12 21C7.02944 21 3 16.9706 3 12ZM8.96687 8.96694C9.28639 8.64742 9.80444 8.64742 10.124 8.96694L12 10.8429L13.876 8.96694C14.1955 8.64742 14.7135 8.64742 15.033 8.96694C15.3526 9.28646 15.3526 9.8045 15.033 10.124L13.157 12L15.033 13.876C15.3526 14.1955 15.3526 14.7136 15.033 15.0331C14.7135 15.3526 14.1955 15.3526 13.876 15.0331L12 13.1571L10.124 15.0331C9.80444 15.3526 9.28639 15.3526 8.96687 15.0331C8.64735 14.7136 8.64735 14.1955 8.96687 13.876L10.8429 12L8.96687 10.124C8.64735 9.8045 8.64735 9.28646 8.96687 8.96694Z" fill="#75757B"/>
</svg>
